<svg width="326" height="323" viewBox="0 0 326 323" fill="none" xmlns="http://www.w3.org/2000/svg">
<path d="M95.5825 94.5464L96.0825 1.54639H228.083L321.083 94.5464L255.083 161.546L229.747 189.366L229.583 189.546M96.0825 1.54639L162.583 68.0464L135.083 94.5464M228.083 1.54639V94.5464M321.083 94.5464H228.083M228.083 94.5464H190.583V133.046M69.5825 161.546L3.58252 95.5464L95.5825 94.5464M69.5825 161.546L95.5825 133.046M69.5825 161.546L4.08252 228.046H97.0825M69.5825 161.546L97.0825 188.046M95.5825 133.046H135.083M95.5825 133.046L123.083 161.546M95.5825 133.046V94.5464M135.083 133.046V94.5464M135.083 133.046V149.546M135.083 94.5464H95.5825M135.083 94.5464L162.583 121.046M97.0825 188.046L123.083 161.546M97.0825 188.046H135.083M97.0825 188.046V228.046M123.083 161.546L135.083 149.546M123.083 161.546L135.083 173.046M190.583 133.046H226.583L202.083 161.546M190.583 133.046V150.046M162.583 121.046L150.083 133.046H174.083L190.583 150.046M162.583 121.046L190.083 94.5464L163.583 69.0464M162.583 121.046L174.583 133.546M135.083 149.546V173.046M135.083 173.046V188.046M162.583 254.546L135.083 228.046V188.046M174.083 189.546H151.083L162.583 200.546M162.583 200.546L174.083 189.546L190.583 173.046M190.583 173.046V150.046M190.583 173.046V189.546M190.583 173.046V150.546L202.083 161.546M190.583 173.046L202.083 161.546M202.083 161.546L229.747 189.366M190.583 189.546H229.583M190.583 189.546V226.546M229.583 189.546V226.546L228.583 319.046L162.583 254.546M162.583 200.546L135.083 228.046M189.083 226.546L162.583 254.546M162.583 254.546L98.0825 319.046L97.0825 228.046M163.083 69.0464L228.083 2.04639M191.083 133.046H150.583M150.583 133.046H134.583M150.583 133.046L135.083 149.046V173.546L151.583 190.046M228.083 95.5425V133.248L321.083 225.046C320.887 174.083 321.278 146.01 321.083 95.0464M162.583 201.046L188.083 227.046H321.583L229.583 321.046H97.0825L3.08252 228.546V96.0464L95.5825 1.04639M98.0825 228.046H134.583" stroke="url(#paint0_linear_175_423)" stroke-width="3"/>
<defs>
<linearGradient id="paint0_linear_175_423" x1="73.1192" y1="209.935" x2="398.289" y2="209.935" gradientUnits="userSpaceOnUse">
<stop stop-color="#22193B"/>
<stop offset="1" stop-color="#E977C1"/>
</linearGradient>
</defs>
</svg>
